<svg xmlns="http://www.w3.org/2000/svg" viewBox="0 0 210 210" role="img" aria-label="Mock payment QR code">
  <rect width="210" height="210" fill="white"/>
  <g fill="#111">
    <path d="M10 10h60v60H10zM20 20v40h40V20zM30 30h20v20H30zM140 10h60v60h-60zM150 20v40h40V20zM160 30h20v20h-20zM10 140h60v60H10zM20 150v40h40v-40zM30 160h20v20H30z"/>
    <path d="M80 10h10v20H80zM100 10h10v10h-10zM120 10h10v30h-10zM80 45h20v10H80zM105 35h10v25h-10zM75 75h15v15H75zM100 70h10v20h-10zM120 60h15v15h-15zM145 80h20v10h-20zM175 75h25v15h-25zM80 100h10v25H80zM100 95h25v10h-25zM135 100h15v20h-15zM160 100h10v30h-10zM180 100h20v10h-20zM75 130h25v10H75zM110 125h15v15h-15zM130 135h25v10h-25zM170 135h30v15h-30zM80 155h15v25H80zM105 150h10v40h-10zM125 160h20v10h-20zM150 165h10v30h-10zM175 160h25v10h-25zM95 195h30v5H95z"/>
  </g>
</svg>
